HIERARCHY
ROOT Hip
{
	OFFSET 0 0 0
	CHANNELS 6 Xposition Yposition Zposition Zrotation Yrotation Xrotation
	JOINT ShoulderCenter
	{
		OFFSET 0 0.4363 0
		CHANNELS 3 Zrotation Yrotation Xrotation
		JOINT Head
		{
			OFFSET 0 0.1849 0
			CHANNELS 3 Zrotation Yrotation Xrotation
			End Site
			{
				OFFSET 0.0 0.0891 0.0
			}
		}
		JOINT ShoulderLeft
		{
			OFFSET -0.14 0 0
			CHANNELS 3 Zrotation Yrotation Xrotation
			JOINT ElbowLeft
			{
				OFFSET -0.25 0 0
				CHANNELS 3 Zrotation Yrotation Xrotation
				JOINT WristLeft
				{
					OFFSET -0.23 0 0
					CHANNELS 3 Zrotation Yrotation Xrotation
					End Site
					{
						OFFSET -0.0832 0.0 0.0
					}
				}
			}
		}
		JOINT ShoulderRight
		{
			OFFSET 0.14 0 0
			CHANNELS 3 Zrotation Yrotation Xrotation
			JOINT ElbowRight
			{
				OFFSET 0.25 0 0
				CHANNELS 3 Zrotation Yrotation Xrotation
				JOINT WristRight
				{
					OFFSET 0.23 0 0
					CHANNELS 3 Zrotation Yrotation Xrotation
					End Site
					{
						OFFSET 0.0832 0.0 0.0
					}
				}
			}
		}
	}
	JOINT HipLeft
	{
		OFFSET -0.0952 0 0
		CHANNELS 3 Zrotation Yrotation Xrotation
		JOINT KneeLeft
		{
			OFFSET 0 -0.3732 0
			CHANNELS 3 Zrotation Yrotation Xrotation
			JOINT AnkleLeft
			{
				OFFSET 0 -0.346 0
				CHANNELS 3 Zrotation Yrotation Xrotation
				End Site
				{
					OFFSET 0.0 0.0 0.0891
				}
			}
		}
	}
	JOINT HipRight
	{
		OFFSET 0.0952 0 0
		CHANNELS 3 Zrotation Yrotation Xrotation
		JOINT KneeRight
		{
			OFFSET 0 -0.3732 0
			CHANNELS 3 Zrotation Yrotation Xrotation
			JOINT AnkleRight
			{
				OFFSET 0 -0.346 0
				CHANNELS 3 Zrotation Yrotation Xrotation
				End Site
				{
					OFFSET 0.0 0.0 0.0891
				}
			}
		}
	}
}
MOTION
Frames: 14
Frame Time: 0.033333
0.000227009 -1.35199e-005 -0.0023219 7.02854 -39.3789 -12.0013 16.0635 -24.1552 -1.93503 0 0 0 55.9369 1.91456 97.9754 -1.19495e-005 67.4221 -1.27552e-005 0 0 0 0 0 0 0 0 0 0 0 0 21.1723 -0.110242 2.1534 -2.22463 2.63243 -19.8641 0 0 0 8.5192 -1.39108 -5.46118 10.5102 0.356994 -3.0843 0 0 0 
0.000226987 -1.17751e-005 -0.0023223 7.88618 -41.1191 -12.3422 15.3929 -21.7293 -1.97668 0 0 0 56.1654 1.18347 97.7333 -1.8577e-005 67.4178 -1.75935e-005 0 0 0 0 0 0 0 0 0 0 0 0 21.2869 4.07585 2.40609 -19.9142 -2.21749 -11.6658 0 0 0 8.08029 -1.78139 -5.27732 12.2823 0.412781 -2.95956 -3.12101e-007 7.39973e-007 1.00395e-007 
0.000226684 -1.17751e-005 -0.0023225 8.1227 -41.1037 -12.3674 15.0978 -21.264 -2.34023 0 0 0 56.3016 0.703424 97.5127 -6.10777e-006 67.5141 -1.08688e-005 0 0 0 0 0 0 0 0 0 0 0 0 21.3683 9.06788 2.27311 -30.3379 -1.70432 -4.28893 4.35256e-007 1.17714e-006 1.37526e-007 7.93482 -1.90409 -5.39454 12.5989 0.36404 -2.6808 0 0 0 
0.000226464 -1.17751e-005 -0.0023234 9.02859 -42.3821 -12.7418 14.6724 -19.5414 -2.05757 0 0 0 56.2833 0.637454 97.0335 -1.08174e-005 67.7121 -1.43118e-005 -1.07913e-006 -1.95991e-006 -8.79543e-007 0 0 0 0 0 0 0 0 0 21.3621 16.0862 2.26435 -37.9295 3.87804 6.74729 0 0 0 7.67272 -1.9649 -5.45685 12.8376 0.318327 -2.30141 0 0 0 
0.000226464 -1.20212e-005 -0.00233294 9.69516 -44.2361 -12.4917 14.3334 -17.2019 -1.93709 0 0 0 56.5943 0.64581 81.5612 -9.29041e-006 70.7144 -1.30355e-005 0 0 0 0 0 0 0 0 0 0 0 0 22.0331 26.5976 1.23 -44.0954 8.30862 11.4656 0 0 0 8.40262 -1.84814 -6.91041 12.1397 0.104841 -0.780474 0 0 0 
0.000226464 -1.24696e-005 -0.0023336 10.3547 -44.3852 -12.86 13.9966 -16.6284 -1.92527 -5.28143e-008 2.37673e-006 2.24392e-007 56.5062 0.526273 81.4979 -2.79136e-005 71.1678 -2.36455e-005 5.98703e-007 1.80175e-006 3.36685e-007 0 0 0 0 0 0 0 0 0 21.7831 30.8674 1.14642 -45.1501 10.9304 14.256 2.10907e-007 9.9685e-008 -3.51259e-011 8.35836 -1.68869 -6.03667 11.6798 0.293283 -2.2767 0 0 0 
0.00022789 -1.36665e-005 -0.00233612 11.3377 -44.6726 -13.3972 13.6934 -15.8979 -1.64941 0 0 0 56.2078 0.714579 81.1215 3.38476e-006 71.8243 -7.11396e-006 0 0 0 0 0 0 0 0 0 0 0 0 21.1604 33.1963 0.450001 -44.2663 13.8426 17.9552 0 0 0 7.59969 -1.85634 -6.46718 11.9122 0.212482 -1.79936 0 0 0 
0.000228043 -1.36665e-005 -0.00233979 12.5092 -46.3795 -14.1295 13.4237 -13.7083 -1.23775 0 0 0 55.9951 0.610813 81.4754 -1.43396e-005 71.8382 -1.43546e-005 6.63218e-007 1.86098e-006 3.66109e-007 0 0 0 0 0 0 0 0 0 21.0259 31.4662 0.478667 -44.862 11.6745 15.4146 2.5918e-007 4.74515e-009 -1.76746e-008 7.29693 -1.73002 -6.70575 11.5426 0.0414387 -0.345929 0 0 0 
0.000228084 -1.36665e-005 -0.00234138 12.914 -46.5197 -14.4007 13.2771 -13.4365 -1.09383 0 0 0 55.9013 0.688019 81.5087 1.13046e-005 71.9942 5.59664e-006 0 0 0 0 0 0 0 0 0 0 0 0 20.8175 27.2931 0.418139 -44.1372 8.93356 12.2153 3.91244e-007 5.22828e-007 -3.22179e-008 6.65005 -1.92242 -7.60282 11.6145 -0.0511483 0.476659 0 0 0 
0.000228095 -1.23753e-005 -0.00234569 13.4385 -46.7618 -15.023 13.2341 -13.0275 -0.737969 -3.52671e-007 -4.47202e-007 -2.67888e-007 55.5889 0.700569 81.1484 -5.4208e-006 72.3005 -1.22554e-005 0 0 0 0 0 0 0 0 0 0 0 0 19.5604 16.7871 -0.0970546 -38.9032 0.972314 1.64394 0 0 0 6.07737 -1.97737 -7.27729 11.9216 -0.0436061 0.396487 0 0 0 
0.000228095 -1.17782e-005 -0.00234624 13.7249 -46.958 -15.351 13.0564 -12.7744 -0.554584 0 0 0 55.5889 0.68177 81.0138 -4.47011e-006 72.5099 -7.24375e-006 0 0 0 0 0 0 0 0 0 0 0 0 19.4797 15.2092 0.116672 -37.4765 0.256862 0.456906 0 0 0 5.77704 -2.62223 -7.41446 14.3213 0.0968832 -0.670076 -2.17884e-007 2.33009e-007 -9.05619e-010 
0.000228134 -7.88513e-006 -0.00234628 14.5371 -47.1021 -16.3678 12.7116 -12.077 -0.170861 0 0 0 55.3344 0.353721 80.0048 2.12832e-007 72.891 -6.72125e-006 0 0 0 -88.552 -5.20965 60.6349 -1.0298e-006 -23.1266 1.92915e-006 0 0 0 18.7429 8.49158 0.809734 -29.4311 0.0442328 0.11257 0 0 0 4.24866 -3.21977 -7.70825 15.948 -0.201279 1.25436 0 0 0 
0.000228228 -6.52473e-006 -0.00234658 14.6594 -47.2001 -16.6823 12.6658 -12.1343 -0.168238 0 0 0 55.2775 0.232176 79.8213 -1.40473e-005 72.9192 -1.25133e-005 0 0 0 -88.1963 -4.90552 59.2915 -3.17689e-006 -23.4481 4.42192e-007 0 0 0 18.2991 6.22768 1.50927 -25.8069 -0.36283 -1.08795 -5.37111e-008 6.64456e-007 2.84355e-007 4.07408 -3.71797 -7.46631 17.2765 -0.655006 3.65643 0 0 0 
0.000230075 -2.78734e-006 -0.00234675 14.6492 -46.5147 -16.8733 12.4193 -12.9122 -0.153558 0 0 0 55.6637 0.445378 79.6611 1.2749e-007 72.3529 -6.90053e-006 0 0 0 -87.6383 -4.54723 57.8565 8.49489e-006 -23.9602 -8.13298e-006 0 0 0 17.783 5.79882 1.7792 -24.9554 -0.70856 -1.99939 0 0 0 3.57146 -3.82656 -7.55271 16.3876 -0.802205 6.11217 -1.86658e-007 1.33916e-007 3.88381e-007 
